<svg width="320" height="42" viewBox="0 0 320 42" fill="none" xmlns="http://www.w3.org/2000/svg">
<path d="M42 21.0003C42 32.5785 32.5801 42 20.9966 42C16.8535 42 12.9843 40.7923 9.73122 38.7084C8.27105 37.7827 6.92955 36.6704 5.75872 35.4174L10.5986 30.8366L16.3861 25.3663L20.9966 21.0003L15.0972 23.3797C14.8005 22.6455 14.6372 21.8373 14.6372 21.0003C14.6372 17.4939 17.4909 14.6398 20.9966 14.6398C24.5091 14.6398 27.3628 17.4939 27.3628 21.0003C27.3628 24.5061 24.5091 27.3602 20.9966 27.3602C19.7438 27.3602 18.573 26.9968 17.5869 26.3666L13.311 33.0826C15.5266 34.5057 18.165 35.3287 20.9966 35.3287C28.897 35.3287 35.3298 28.902 35.3298 21.0003C35.3298 13.098 28.897 6.67135 20.9966 6.67135C13.0963 6.67135 6.67018 13.098 6.67018 21.0003C6.67018 22.8902 7.04088 24.6988 7.71561 26.3519L1.52685 28.85C0.541368 26.426 0 23.7719 0 21.0003C0 9.4215 9.41986 -1.08376e-06 20.9966 -1.08376e-06C32.5801 -1.08376e-06 42 9.4215 42 21.0003Z" fill="#E08322"/>
<path d="M78.8059 21.6847C78.8059 23.7668 78.4762 25.6808 77.8166 27.4267C77.157 29.1596 76.2259 30.6533 75.0232 31.9078C73.8205 33.1622 72.3721 34.1386 70.6779 34.837C68.9967 35.5224 67.1345 35.8651 65.0911 35.8651C63.0478 35.8651 61.1856 35.5224 59.5044 34.837C57.8231 34.1386 56.3812 33.1622 55.1785 31.9078C53.9758 30.6533 53.0446 29.1596 52.3851 27.4267C51.7255 25.6808 51.3958 23.7668 51.3958 21.6847C51.3958 19.6026 51.7255 17.6951 52.3851 15.9621C53.0446 14.2163 53.9758 12.7161 55.1785 11.4617C56.3812 10.1943 57.8231 9.21144 59.5044 8.51309C61.1856 7.81474 63.0478 7.46556 65.0911 7.46556C67.1345 7.46556 68.9967 7.81474 70.6779 8.51309C72.3721 9.21144 73.8205 10.1943 75.0232 11.4617C76.2259 12.7161 77.157 14.2163 77.8166 15.9621C78.4762 17.6951 78.8059 19.6026 78.8059 21.6847ZM74.9456 21.6847C74.9456 19.9776 74.7128 18.4452 74.2473 17.0873C73.7817 15.7294 73.1221 14.5848 72.2686 13.6537C71.4151 12.7096 70.3805 11.9854 69.1648 11.4811C67.9492 10.9767 66.5913 10.7245 65.0911 10.7245C63.6039 10.7245 62.2525 10.9767 61.0368 11.4811C59.8212 11.9854 58.7801 12.7096 57.9137 13.6537C57.0601 14.5848 56.4006 15.7294 55.935 17.0873C55.4695 18.4452 55.2367 19.9776 55.2367 21.6847C55.2367 23.3918 55.4695 24.9243 55.935 26.2822C56.4006 27.6271 57.0601 28.7717 57.9137 29.7157C58.7801 30.6469 59.8212 31.3646 61.0368 31.869C62.2525 32.3604 63.6039 32.6061 65.0911 32.6061C66.5913 32.6061 67.9492 32.3604 69.1648 31.869C70.3805 31.3646 71.4151 30.6469 72.2686 29.7157C73.1221 28.7717 73.7817 27.6271 74.2473 26.2822C74.7128 24.9243 74.9456 23.3918 74.9456 21.6847Z" fill="white"/>
<path d="M113.113 7.77594V35.5741H109.816V15.1474C109.816 14.8758 109.822 14.5848 109.835 14.2745C109.861 13.9641 109.887 13.6472 109.913 13.3239L100.369 30.7051C100.071 31.287 99.6186 31.578 99.0107 31.578H98.4676C97.8598 31.578 97.4071 31.287 97.1097 30.7051L87.3716 13.2463C87.4492 13.9318 87.488 14.5654 87.488 15.1474V35.5741H84.1902V7.77594H86.9642C87.3005 7.77594 87.5591 7.80827 87.7402 7.87293C87.9212 7.9376 88.0958 8.11865 88.2639 8.4161L97.8662 25.5256C98.0214 25.836 98.1701 26.1593 98.3124 26.4956C98.4676 26.8318 98.6098 27.1745 98.7392 27.5237C98.8685 27.1745 99.0043 26.8318 99.1465 26.4956C99.2888 26.1464 99.444 25.8166 99.6121 25.5062L109.04 8.4161C109.195 8.11865 109.363 7.9376 109.544 7.87293C109.738 7.80827 110.003 7.77594 110.34 7.77594H113.113Z" fill="white"/>
<path d="M142.743 7.77594V35.5741H140.862C140.564 35.5741 140.312 35.5224 140.105 35.4189C139.911 35.3155 139.717 35.1409 139.523 34.8952L123.442 13.9447C123.468 14.268 123.487 14.5848 123.5 14.8952C123.513 15.2056 123.519 15.4966 123.519 15.7682V35.5741H120.222V7.77594H122.161C122.33 7.77594 122.472 7.78887 122.588 7.81474C122.705 7.82767 122.808 7.86 122.899 7.91173C122.989 7.95053 123.08 8.01519 123.17 8.10572C123.261 8.18331 123.358 8.28677 123.461 8.4161L139.543 29.3472C139.517 29.0109 139.491 28.6876 139.465 28.3772C139.452 28.0539 139.446 27.75 139.446 27.4655V7.77594H142.743Z" fill="white"/>
<path d="M153.613 35.5741H149.85V7.77594H153.613V35.5741Z" fill="white"/>
<path d="M191.684 7.31038V35.5741H185.903V19.3181C185.903 18.9431 185.909 18.5357 185.922 18.096C185.948 17.6563 185.987 17.2101 186.039 16.7575L178.532 31.287C178.299 31.7396 177.982 32.0824 177.581 32.3151C177.193 32.5479 176.747 32.6643 176.242 32.6643H175.35C174.846 32.6643 174.393 32.5479 173.992 32.3151C173.604 32.0824 173.294 31.7396 173.061 31.287L165.554 16.7187C165.593 17.1843 165.625 17.6434 165.651 18.096C165.677 18.5357 165.69 18.9431 165.69 19.3181V35.5741H159.909V7.31038H164.914C165.198 7.31038 165.444 7.31684 165.651 7.32977C165.871 7.34271 166.065 7.38151 166.233 7.44617C166.401 7.51083 166.55 7.61429 166.679 7.75655C166.821 7.88587 166.957 8.07339 167.086 8.3191L174.361 22.6546C174.619 23.1461 174.865 23.6569 175.098 24.1871C175.344 24.7174 175.576 25.2605 175.796 25.8166C176.016 25.2476 176.242 24.6915 176.475 24.1483C176.721 23.6052 176.98 23.0879 177.251 22.5965L184.506 8.3191C184.636 8.07339 184.765 7.88587 184.894 7.75655C185.037 7.61429 185.192 7.51083 185.36 7.44617C185.528 7.38151 185.715 7.34271 185.922 7.32977C186.142 7.31684 186.394 7.31038 186.679 7.31038H191.684Z" fill="white"/>
<path d="M212.09 24.7691L209.471 17.0291C209.277 16.5376 209.07 15.9621 208.85 15.3026C208.63 14.6301 208.41 13.9059 208.19 13.1299C207.996 13.9188 207.79 14.6495 207.57 15.322C207.35 15.9945 207.143 16.5764 206.949 17.0679L204.349 24.7691H212.09ZM222.507 35.5741H217.424C216.855 35.5741 216.396 35.4448 216.047 35.1861C215.698 34.9146 215.433 34.5718 215.251 34.158L213.583 29.2308H202.836L201.168 34.158C201.026 34.5201 200.767 34.8499 200.392 35.1473C200.03 35.4318 199.577 35.5741 199.034 35.5741H193.913L204.854 7.31038H211.566L222.507 35.5741Z" fill="white"/>
<path d="M247.74 7.31038L236.411 35.5741H230.475L219.146 7.31038H224.423C224.992 7.31038 225.451 7.44617 225.8 7.71775C226.149 7.9764 226.414 8.31264 226.595 8.72647L232.066 23.8574C232.324 24.5169 232.577 25.2411 232.822 26.03C233.068 26.8059 233.301 27.6207 233.521 28.4742C233.702 27.6207 233.902 26.8059 234.122 26.03C234.355 25.2411 234.601 24.5169 234.859 23.8574L240.291 8.72647C240.433 8.36437 240.685 8.04106 241.047 7.75655C241.422 7.4591 241.881 7.31038 242.425 7.31038H247.74Z" fill="white"/>
<path d="M256.564 12.354V18.9495H265.448V23.7992H256.564V30.5305H268.164V35.5741H249.968V7.31038H268.164V12.354H256.564Z" fill="white"/>
<path d="M296.883 7.31038V35.5741H293.469C292.965 35.5741 292.538 35.4965 292.189 35.3413C291.853 35.1732 291.516 34.8887 291.18 34.4878L277.853 17.6304C277.905 18.1348 277.937 18.6262 277.95 19.1047C277.976 19.5703 277.989 20.01 277.989 20.4238V35.5741H272.208V7.31038H275.661C275.946 7.31038 276.185 7.32331 276.379 7.34917C276.573 7.37504 276.748 7.42677 276.903 7.50436C277.058 7.56903 277.207 7.66602 277.349 7.79534C277.491 7.92467 277.653 8.09925 277.834 8.3191L291.277 25.2929C291.213 24.7497 291.167 24.2259 291.141 23.7216C291.116 23.2043 291.103 22.7193 291.103 22.2667V7.31038H296.883Z" fill="white"/>
<path d="M317.983 13.0524C317.789 13.3627 317.582 13.5955 317.362 13.7507C317.155 13.9059 316.884 13.9835 316.547 13.9835C316.25 13.9835 315.927 13.893 315.578 13.7119C315.241 13.5179 314.853 13.3045 314.414 13.0718C313.987 12.839 313.495 12.6321 312.939 12.451C312.383 12.257 311.75 12.16 311.038 12.16C309.81 12.16 308.891 12.4251 308.284 12.9554C307.689 13.4727 307.391 14.1775 307.391 15.0698C307.391 15.6388 307.572 16.1109 307.935 16.4859C308.297 16.8609 308.769 17.1843 309.351 17.4558C309.945 17.7274 310.618 17.9796 311.368 18.2124C312.131 18.4322 312.907 18.6844 313.696 18.9689C314.485 19.2405 315.254 19.5638 316.004 19.9388C316.767 20.3139 317.44 20.7924 318.022 21.3743C318.617 21.9563 319.095 22.6676 319.457 23.5082C319.819 24.3359 320 25.3381 320 26.515C320 27.8211 319.774 29.0432 319.321 30.1813C318.869 31.3193 318.209 32.3151 317.343 33.1687C316.489 34.0093 315.429 34.6753 314.161 35.1667C312.907 35.6452 311.478 35.8845 309.874 35.8845C308.995 35.8845 308.096 35.7939 307.178 35.6129C306.273 35.4318 305.393 35.1797 304.54 34.8564C303.686 34.5201 302.884 34.1257 302.134 33.673C301.384 33.2204 300.731 32.716 300.175 32.16L302.115 29.095C302.27 28.8751 302.471 28.6941 302.716 28.5518C302.975 28.3966 303.253 28.319 303.55 28.319C303.938 28.319 304.326 28.4419 304.714 28.6876C305.115 28.9333 305.561 29.2049 306.053 29.5023C306.557 29.7998 307.133 30.0714 307.779 30.3171C308.426 30.5628 309.189 30.6857 310.068 30.6857C311.258 30.6857 312.183 30.427 312.842 29.9097C313.502 29.3795 313.832 28.5454 313.832 27.4073C313.832 26.7477 313.651 26.2111 313.289 25.7972C312.926 25.3834 312.448 25.0407 311.853 24.7691C311.271 24.4975 310.605 24.2583 309.855 24.0513C309.105 23.8444 308.335 23.6181 307.547 23.3724C306.758 23.1138 305.988 22.8034 305.238 22.4413C304.488 22.0662 303.816 21.5813 303.221 20.9864C302.639 20.3786 302.167 19.6285 301.805 18.7361C301.442 17.8309 301.261 16.7187 301.261 15.3996C301.261 14.3391 301.475 13.3045 301.902 12.2958C302.328 11.2871 302.956 10.3883 303.783 9.59941C304.611 8.81053 305.626 8.18331 306.829 7.71775C308.031 7.23925 309.409 7 310.961 7C311.827 7 312.668 7.07113 313.483 7.21339C314.31 7.34271 315.093 7.54316 315.83 7.81474C316.567 8.07339 317.252 8.39023 317.886 8.76527C318.533 9.12738 319.108 9.54121 319.612 10.0068L317.983 13.0524Z" fill="white"/>
</svg>
